'-- 
'-- Copyright (C) 2020 OpenBuild
'--
'-- This is free software, licensed under the GNU General Public License v2.
'-- See /LICENSE for more information.
'--

@startuml
!include ThemeSphinxDoc.ipuml

'-- State Declaration
state FetchDependency
state FetchToolchain
state FetchTool
state FetchProject

'-- State Details


'-- State Connections
[*]                 --> FetchDependency         : Check Dependency
FetchDependency     --> FetchToolchain          : Check Toolchain
FetchToolchain      --> FetchTool               : Check Tool
FetchTool           --> FetchProject            : Check Project
FetchProject        --> FetchDependency         : Check New Project
FetchProject        --> [*]

@enduml

